<svg width="100" height="100" viewBox="0 0 100 100" fill="none" xmlns="http://www.w3.org/2000/svg">
<path d="M91.6664 50.0002C91.6664 73.0106 73.0101 91.6668 49.9997 91.6668C26.9893 91.6668 8.33301 73.0106 8.33301 50.0002C8.33301 26.9897 26.9893 8.3335 49.9997 8.3335C73.0101 8.3335 91.6664 26.9897 91.6664 50.0002Z" fill="url(#paint0_linear_302_25)"/>
<path opacity="0.05" d="M67.0255 33.6915L45.8338 54.8832L35.0588 44.1082C33.4317 42.4811 30.7942 42.4811 29.1671 44.1082L26.2213 47.054C24.5942 48.6811 24.5942 51.3186 26.2213 52.9457L42.888 69.6123C44.515 71.2394 47.1525 71.2394 48.7796 69.6123L75.863 42.529C77.49 40.9019 77.49 38.2644 75.863 36.6373L72.9171 33.6915C71.29 32.0644 68.6525 32.0644 67.0255 33.6915Z" fill="black"/>
<path opacity="0.07" d="M43.6233 68.8772L26.9566 52.2106C25.7358 50.9897 25.7358 49.0105 26.9566 47.7918L29.9025 44.846C31.1233 43.6251 33.1025 43.6251 34.3212 44.846L45.8337 56.3564L67.7608 34.4293C68.9816 33.2085 70.9608 33.2085 72.1796 34.4293L75.1254 37.3751C76.3462 38.596 76.3462 40.5751 75.1254 41.7939L48.0421 68.8772C46.8233 70.096 44.8441 70.096 43.6233 68.8772Z" fill="black"/>
<path d="M44.3606 68.1396L27.6939 51.473C26.8794 50.6584 26.8794 49.3396 27.6939 48.5271L30.6398 45.5813C31.4544 44.7667 32.7731 44.7667 33.5856 45.5813L45.8335 57.8292L68.4981 35.1646C69.3127 34.3501 70.6314 34.3501 71.4439 35.1646L74.3898 38.1105C75.2044 38.9251 75.2044 40.2438 74.3898 41.0563L47.3064 68.1396C46.4939 68.9542 45.1731 68.9542 44.3606 68.1396Z" fill="white"/>
<defs>
<linearGradient id="paint0_linear_302_25" x1="20.5372" y1="20.5377" x2="79.4622" y2="79.4627" gradientUnits="userSpaceOnUse">
<stop stop-color="#21AD64"/>
<stop offset="1" stop-color="#088242"/>
</linearGradient>
</defs>
</svg>
